<?xml version="1.0" encoding="UTF-8"?>
<svg width="188px" height="146px" viewBox="0 0 188 146" version="1.1" xmlns="http://www.w3.org/2000/svg" xmlns:xlink="http://www.w3.org/1999/xlink">
    <!-- Generator: Sketch 52.5 (67469) - http://www.bohemiancoding.com/sketch -->
    <title>Group 179</title>
    <desc>Created with Sketch.</desc>
    <defs>
        <polygon id="path-1" points="0.720783133 0.325476668 59.1296687 0.325476668 59.1296687 29.4377733 0.720783133 29.4377733"></polygon>
        <polygon id="path-3" points="0.440587349 0.541885625 6.8373494 0.541885625 6.8373494 13.2952265 0.440587349 13.2952265"></polygon>
        <polygon id="path-5" points="0.0602409639 0.541885625 6.45715361 0.541885625 6.45715361 13.2952265 0.0602409639 13.2952265"></polygon>
        <polygon id="path-7" points="0.0602409639 0.688935623 12.8140813 0.688935623 12.8140813 26.9612682 0.0602409639 26.9612682"></polygon>
        <polygon id="path-9" points="0.0602409639 0.49782317 15.1808735 0.49782317 15.1808735 30.6434482 0.0602409639 30.6434482"></polygon>
        <polygon id="path-11" points="0.107756024 0.688935623 12.8614458 0.688935623 12.8614458 26.9612682 0.107756024 26.9612682"></polygon>
        <polygon id="path-13" points="0.00015060241 0.49782317 15.1204819 0.49782317 15.1204819 30.6434482 0.00015060241 30.6434482"></polygon>
    </defs>
    <g id="Page-1" stroke="none" stroke-width="1" fill="none" fill-rule="evenodd" opacity="0.65">
        <g id="iPhone-8-Copy-2">
            <g id="comidinhas-splash" transform="translate(0.000000, -42.000000)">
                <g id="Group-179" transform="translate(-0.000000, 0.000000)">
                    <path d="M99.4725904,32.7393047 C95.5546687,32.7393047 92.3664157,35.9167557 92.3664157,39.8223256 C92.3664157,43.7278955 95.5546687,46.9060971 99.4725904,46.9060971 C103.390512,46.9060971 106.578012,43.7278955 106.578012,39.8223256 C106.578012,35.9167557 103.390512,32.7393047 99.4725904,32.7393047 M99.4725904,49.0724386 C94.3558735,49.0724386 90.1932229,44.9229113 90.1932229,39.8223256 C90.1932229,34.7217399 94.3558735,30.5722126 99.4725904,30.5722126 C104.589307,30.5722126 108.751205,34.7217399 108.751205,39.8223256 C108.751205,44.9229113 104.589307,49.0724386 99.4725904,49.0724386" id="Fill-4" fill="#AEE8D2"></path>
                    <g id="Group-11" transform="translate(111.445783, 158.058856)">
                        <mask id="mask-2" fill="white">
                            <use xlink:href="#path-1"></use>
                        </mask>
                        <g id="Clip-10"></g>
                        <path d="M29.9256024,4.07866703 C15.897741,4.07866703 4.48584337,15.454587 4.48584337,29.437473 C4.48584337,43.4203591 15.897741,54.7962791 29.9256024,54.7962791 C43.9527108,54.7962791 55.3646084,43.4203591 55.3646084,29.437473 C55.3646084,15.454587 43.9527108,4.07866703 29.9256024,4.07866703 M29.9256024,58.5494694 C13.8216867,58.5494694 0.720783133,45.4898682 0.720783133,29.437473 C0.720783133,13.3850779 13.8216867,0.325476668 29.9256024,0.325476668 C46.0287651,0.325476668 59.1296687,13.3850779 59.1296687,29.437473 C59.1296687,45.4898682 46.0287651,58.5494694 29.9256024,58.5494694" id="Fill-9" fill="#AEE8D2" mask="url(#mask-2)"></path>
                    </g>
                    <path d="M27.3099398,107.835765 C24.639006,107.835765 22.4665663,110.002106 22.4665663,112.664619 C22.4665663,115.326382 24.639006,117.492724 27.3099398,117.492724 C29.9808735,117.492724 32.1540663,115.326382 32.1540663,112.664619 C32.1540663,110.002106 29.9808735,107.835765 27.3099398,107.835765 M27.3099398,118.969979 C23.821988,118.969979 20.9846386,116.140824 20.9846386,112.664619 C20.9846386,109.187664 23.821988,106.358509 27.3099398,106.358509 C30.7986446,106.358509 33.635994,109.187664 33.635994,112.664619 C33.635994,116.140824 30.7986446,118.969979 27.3099398,118.969979" id="Fill-12" fill="#AEE8D2"></path>
                    <g id="Group-16" transform="translate(180.722892, 166.315875)">
                        <mask id="mask-4" fill="white">
                            <use xlink:href="#path-3"></use>
                        </mask>
                        <g id="Clip-15"></g>
                        <path d="M6.8374247,2.03565539 C4.13637048,2.03565539 1.93908133,4.22601729 1.93908133,6.91855605 C1.93908133,9.61109482 4.13637048,11.8014567 6.8374247,11.8014567 C9.53847892,11.8014567 11.7357681,9.61109482 11.7357681,6.91855605 C11.7357681,4.22601729 9.53847892,2.03565539 6.8374247,2.03565539 M6.8374247,13.2952265 C3.30956325,13.2952265 0.440587349,10.4345448 0.440587349,6.91855605 C0.440587349,3.40256732 3.30956325,0.541885625 6.8374247,0.541885625 C10.3652861,0.541885625 13.234262,3.40256732 13.234262,6.91855605 C13.234262,10.4345448 10.3652861,13.2952265 6.8374247,13.2952265" id="Fill-14" fill="#AEE8D2" mask="url(#mask-4)"></path>
                    </g>
                    <g id="Group-19" transform="translate(0.000000, 166.315875)">
                        <mask id="mask-6" fill="white">
                            <use xlink:href="#path-5"></use>
                        </mask>
                        <g id="Clip-18"></g>
                        <path d="M0.0603162651,2.03565539 C-2.64073795,2.03565539 -4.83802711,4.22601729 -4.83802711,6.91855605 C-4.83802711,9.61109482 -2.64073795,11.8014567 0.0603162651,11.8014567 C2.76137048,11.8014567 4.95865964,9.61109482 4.95865964,6.91855605 C4.95865964,4.22601729 2.76137048,2.03565539 0.0603162651,2.03565539 M0.0603162651,13.2952265 C-3.46754518,13.2952265 -6.33652108,10.4345448 -6.33652108,6.91855605 C-6.33652108,3.40256732 -3.46754518,0.541885625 0.0603162651,0.541885625 C3.58817771,0.541885625 6.45715361,3.40256732 6.45715361,6.91855605 C6.45715361,10.4345448 3.58817771,13.2952265 0.0603162651,13.2952265" id="Fill-17" fill="#AEE8D2" mask="url(#mask-6)"></path>
                    </g>
                    <path d="M141.191491,94.0420395 C138.490437,94.0420395 136.293148,96.2324014 136.293148,98.9249402 C136.293148,101.617479 138.490437,103.807841 141.191491,103.807841 C143.892545,103.807841 146.089834,101.617479 146.089834,98.9249402 C146.089834,96.2324014 143.892545,94.0420395 141.191491,94.0420395 M141.191491,105.301611 C137.66363,105.301611 134.794654,102.440929 134.794654,98.9249402 C134.794654,95.4089515 137.66363,92.5482698 141.191491,92.5482698 C144.719352,92.5482698 147.588328,95.4089515 147.588328,98.9249402 C147.588328,102.440929 144.719352,105.301611 141.191491,105.301611" id="Fill-20" fill="#AEE8D2"></path>
                    <polygon id="Fill-24" fill="#AEE8D2" points="116.565136 135.221594 114.74887 138.319477 117.736822 140.060207 117.27372 140.851379 114.285015 139.11065 112.45369 142.234805 111.607304 141.741636 113.43863 138.61748 110.449172 136.876 110.913027 136.084828 113.902485 137.826308 115.71875 134.728425"></polygon>
                    <polygon id="Fill-26" fill="#AEE8D2" points="95.8610693 174.857086 94.0448042 177.954969 97.032756 179.695699 96.5696536 180.486871 93.5809488 178.746141 91.7496235 181.870297 90.903238 181.377128 92.7345633 178.252972 89.7451054 176.511492 90.2089608 175.720319 93.1984187 177.4618 95.0146837 174.363916"></polygon>
                    <polygon id="Fill-28" fill="#AEE8D2" points="10.7246235 158.65126 8.90835843 161.749143 11.8963102 163.489873 11.4332078 164.281046 8.44450301 162.540316 6.61317771 165.664471 5.76679217 165.171302 7.59811747 162.047147 4.60865964 160.305666 5.07251506 159.514494 8.06197289 161.255974 9.87823795 158.158091"></polygon>
                    <g id="Group-32" transform="translate(0.000000, 126.532057)">
                        <mask id="mask-8" fill="white">
                            <use xlink:href="#path-7"></use>
                        </mask>
                        <g id="Clip-31"></g>
                        <polygon id="Fill-30" fill="#AEE8D2" mask="url(#mask-8)" points="8.71167169 2.41465255 2.35474398 13.2576195 12.8140813 19.3505487 11.1905873 22.118902 0.732003012 16.0267234 -5.67914157 26.9612682 -8.64149096 25.2355512 -2.23034639 14.3002558 -12.6934488 8.20582528 -11.0699548 5.43672143 -0.607605422 11.5319026 5.74932229 0.688935623"></polygon>
                    </g>
                    <polygon id="Fill-33" fill="#AEE8D2" points="85.3 73.6961447 81.6674699 79.8919114 87.6441265 83.3733707 86.7164157 84.9557158 80.739759 81.4742564 77.0771084 87.7225677 75.3843373 86.7362293 79.046988 80.487918 73.0688253 77.0049573 73.9965361 75.4226123 79.9746988 78.9055729 83.6072289 72.7098063"></polygon>
                    <polygon id="Fill-35" fill="#AEE8D2" points="56.3347892 169.161544 53.4582831 174.068465 58.1909639 176.825559 57.4567771 178.078374 52.7233434 175.32128 49.822741 180.269486 48.4823795 179.488823 51.3829819 174.539866 46.6487952 171.782022 47.3829819 170.529207 52.1179217 173.287051 54.9944277 168.380881"></polygon>
                    <path d="M43.4386295,140.681285 L46.6487199,143.881255 L49.8580572,140.681285 L46.6487199,137.481315 L43.4386295,140.681285 Z M46.6487199,144.987695 L42.3279367,140.681285 L46.6487199,136.374874 L50.96875,140.681285 L46.6487199,144.987695 Z" id="Fill-39" fill="#AEE8D2"></path>
                    <g id="Group-43" transform="translate(0.000000, 82.244411)">
                        <mask id="mask-10" fill="white">
                            <use xlink:href="#path-9"></use>
                        </mask>
                        <g id="Clip-42"></g>
                        <path d="M-11.1745482,15.5706357 L0.0603915663,26.7701557 L11.2953313,15.5706357 L0.0603915663,4.37111563 L-11.1745482,15.5706357 Z M0.0603915663,30.6434482 L-15.0600904,15.5706357 L0.0603915663,0.49782317 L15.1808735,15.5706357 L0.0603915663,30.6434482 Z" id="Fill-41" fill="#AEE8D2" mask="url(#mask-10)"></path>
                    </g>
                    <g id="Group-49" transform="translate(174.698795, 126.532057)">
                        <mask id="mask-12" fill="white">
                            <use xlink:href="#path-11"></use>
                        </mask>
                        <g id="Clip-48"></g>
                        <polygon id="Fill-47" fill="#AEE8D2" mask="url(#mask-12)" points="21.5128765 2.41465255 15.1559488 13.2576195 25.6152861 19.3505487 23.9917922 22.118902 13.5332078 16.0267234 7.12206325 26.9612682 4.15971386 25.2355512 10.5708584 14.3002558 0.107756024 8.20582528 1.73125 5.43672143 12.1935994 11.5319026 18.5505271 0.688935623"></polygon>
                    </g>
                    <g id="Group-52" transform="translate(172.439759, 82.244411)">
                        <mask id="mask-14" fill="white">
                            <use xlink:href="#path-13"></use>
                        </mask>
                        <g id="Clip-51"></g>
                        <path d="M3.88569277,15.5706357 L15.1206325,26.7701557 L26.3555723,15.5706357 L15.1206325,4.37111563 L3.88569277,15.5706357 Z M15.1206325,30.6434482 L0.00015060241,15.5706357 L15.1206325,0.49782317 L30.2411145,15.5706357 L15.1206325,30.6434482 Z" id="Fill-50" fill="#AEE8D2" mask="url(#mask-14)"></path>
                    </g>
                    <path d="M55.0316265,34.7375783 L59.0737952,46.7072531 L71.0813253,42.6778279 L67.0391566,30.7074025 L55.0316265,34.7375783 Z M57.6972892,49.4733544 L52.2560241,33.3646613 L68.4171687,27.9413012 L73.8569277,44.0507449 L57.6972892,49.4733544 Z" id="Fill-53" fill="#AEE8D2"></path>
                    <path d="M127.984864,119.728049 C126.546611,120.746665 126.207756,122.741861 127.229593,124.17633 L143.860617,147.512917 C144.883208,148.947386 146.884714,149.285173 148.322967,148.265807 L156.84631,142.229926 C158.285316,141.21131 158.624172,139.216114 157.601581,137.781645 L143.804142,118.421938 C142.314684,119.299434 140.911822,118.523275 140.180648,117.795906 C139.256702,118.178732 138.369654,118.219266 137.542093,117.916008 C136.161069,117.410078 135.385467,116.09421 135.147515,115.628064 L134.295105,115.2595 L127.984864,119.728049 Z M157.359864,142.950539 L148.836521,148.986419 C146.999172,150.287275 144.443449,149.855658 143.138479,148.024852 L126.506702,124.688265 C125.201732,122.856708 125.634714,120.309043 127.47131,119.008187 L134.189684,114.250643 L135.812425,114.952489 L135.881702,115.112375 C135.887726,115.126637 136.554895,116.615903 137.852334,117.088805 C138.53381,117.336516 139.288328,117.260701 140.09631,116.864364 L140.414081,116.708232 L140.63622,116.982965 C140.781551,117.157864 142.116642,118.666646 143.640738,117.464875 L144.005949,117.179632 L158.324473,137.27046 C159.629443,139.101267 159.196461,141.649683 157.359864,142.950539 Z" id="Fill-55" fill="#AEE8D2"></path>
                    <path d="M159.419352,154.837718 C158.517244,155.476511 157.26122,155.264831 156.620407,154.365567 L151.204744,146.766858 C151.063178,146.567939 151.109864,146.292455 151.309413,146.151335 C151.508961,146.010215 151.786069,146.056754 151.927636,146.255673 L157.342545,153.853632 C157.700979,154.356559 158.402033,154.474409 158.905798,154.117106 C159.409563,153.760553 159.528539,153.061709 159.170858,152.559532 L153.755196,144.960823 C153.61363,144.761903 153.660316,144.486419 153.859864,144.345299 C154.059413,144.203429 154.335768,144.250719 154.478087,144.449638 L159.892997,152.047597 C160.53381,152.946861 160.321461,154.198925 159.419352,154.837718" id="Fill-57" fill="#AEE8D2"></path>
                    <path d="M139.999473,131.532733 C140.765286,132.272862 141.977636,132.38771 142.877485,131.750418 C143.777334,131.113126 144.067997,129.933874 143.619202,128.969304 L139.999473,131.532733 Z M143.355648,132.421489 C141.970105,133.402573 140.041642,133.076796 139.057455,131.695622 L138.817997,131.360086 L143.844352,127.800561 L144.083057,128.136096 C145.067997,129.51727 144.74119,131.439654 143.355648,132.421489 Z" id="Fill-59" fill="#AEE8D2"></path>
                    <path d="M138.338554,128.302137 C138.604367,128.675204 138.516265,129.191643 138.142771,129.456618 C137.768524,129.720843 137.250452,129.633769 136.984639,129.260702 C136.718825,128.888385 136.806928,128.371196 137.180422,128.106971 C137.554669,127.841996 138.072741,127.929821 138.338554,128.302137" id="Fill-61" fill="#AEE8D2"></path>
                    <path d="M142.575753,125.301386 C142.841566,125.673703 142.753464,126.190892 142.37997,126.455868 C142.005723,126.720092 141.487651,126.633018 141.221837,126.259951 C140.956024,125.887635 141.044127,125.370445 141.41762,125.10622 C141.791867,124.841245 142.30994,124.92907 142.575753,125.301386" id="Fill-63" fill="#AEE8D2"></path>
                    <path d="M106.009563,155.900547 C104.035166,158.018847 104.157154,161.342673 106.281401,163.310846 C108.406401,165.279769 111.740738,165.158166 113.715136,163.039865 C114.273117,162.441607 114.684262,161.720994 114.911672,160.942583 C114.657154,160.823231 114.255045,160.580775 114.108208,160.196448 C114.047214,160.035812 114.037425,159.866168 114.07884,159.696524 C113.763328,159.579424 113.255798,159.33997 113.02613,158.945135 C112.907907,158.740961 112.87628,158.514269 112.935768,158.288326 C112.953087,158.21026 113.069804,157.771137 113.557756,157.247191 C113.413178,156.888386 113.343148,156.314148 113.762575,155.863766 C113.764834,155.861514 113.767093,155.859262 113.769352,155.85701 C113.738479,155.836743 113.706852,155.816475 113.682003,155.800712 C113.596913,155.745915 113.50881,155.689617 113.443298,155.629566 C111.319051,153.661393 107.983961,153.782997 106.009563,155.900547 Z M114.074322,163.372398 C111.915437,165.687366 108.270858,165.820229 105.948569,163.6689 C103.62628,161.516821 103.492244,157.883733 105.65113,155.568765 C107.809262,153.253046 111.454593,153.120183 113.776883,155.272263 C113.810015,155.302288 113.882304,155.348828 113.94631,155.389362 C114.143599,155.515469 114.330346,155.634821 114.341642,155.838994 C114.346913,155.943333 114.302485,156.038664 114.214383,156.109975 C113.712877,156.513818 114.026883,157.109074 114.06378,157.17513 L114.156401,157.338019 L114.023117,157.470131 C113.508057,157.973809 113.413931,158.390413 113.413178,158.394166 L113.409413,158.409179 C113.381551,158.513518 113.394352,158.605846 113.450075,158.701177 C113.639834,159.028456 114.261822,159.254398 114.464383,159.308444 L114.770858,159.389513 L114.614985,159.664246 C114.514834,159.839895 114.538931,159.953242 114.566039,160.023051 C114.674473,160.306792 115.131551,160.516971 115.282907,160.568765 L115.496009,160.640826 L115.441792,160.858511 C115.209111,161.793056 114.735467,162.662295 114.074322,163.372398 Z" id="Fill-65" fill="#AEE8D2"></path>
                    <path d="M111.778163,158.971858 C111.96491,159.145255 111.976205,159.437253 111.802259,159.623411 C111.628313,159.81032 111.335392,159.820829 111.148645,159.647432 C110.961145,159.474034 110.950602,159.182036 111.124548,158.995878 C111.298494,158.808969 111.591416,158.79846 111.778163,158.971858" id="Fill-67" fill="#AEE8D2"></path>
                    <path d="M106.343599,156.964201 C106.530346,157.137598 106.541642,157.429597 106.367696,157.615755 C106.19375,157.802664 105.900828,157.813173 105.714081,157.639775 C105.526581,157.466378 105.516039,157.17438 105.689985,156.988221 C105.863931,156.801312 106.156852,156.790804 106.343599,156.964201" id="Fill-69" fill="#AEE8D2"></path>
                    <path d="M106.60369,160.651936 C106.454593,160.811822 106.464383,161.061784 106.624021,161.21041 C106.784413,161.359037 107.035919,161.349278 107.184262,161.190143 C107.333358,161.030257 107.324322,160.779544 107.163931,160.631668 C107.003539,160.483042 106.752786,160.49205 106.60369,160.651936 M107.281401,161.279469 C107.082605,161.49265 106.747515,161.50466 106.534413,161.307243 C106.320557,161.109074 106.308509,160.77504 106.506551,160.56261 C106.705346,160.349428 107.040437,160.337418 107.253539,160.534836 C107.467395,160.733005 107.479443,161.067038 107.281401,161.279469" id="Fill-71" fill="#AEE8D2"></path>
                    <path d="M108.87372,157.539865 C108.724623,157.699751 108.734413,157.949714 108.894051,158.09834 C109.054443,158.246966 109.305949,158.237208 109.454292,158.078073 C109.603389,157.918187 109.594352,157.667474 109.433961,157.519598 C109.273569,157.370972 109.022816,157.379979 108.87372,157.539865 M109.551431,158.167399 C109.352636,158.38058 109.017545,158.39259 108.804443,158.195172 C108.590587,157.997004 108.578539,157.66297 108.776581,157.450539 C108.975377,157.237358 109.310467,157.225348 109.524322,157.422766 C109.737425,157.620934 109.749473,157.954968 109.551431,158.167399" id="Fill-73" fill="#AEE8D2"></path>
                    <path d="M111.456024,154.866918 C111.589307,154.990773 111.59759,155.199451 111.473343,155.332314 C111.349096,155.465927 111.139759,155.473434 111.006476,155.349578 C110.87244,155.225723 110.86491,155.017046 110.989157,154.884183 C111.113404,154.750569 111.322741,154.743063 111.456024,154.866918" id="Fill-75" fill="#AEE8D2"></path>
                    <path d="M78.5960843,165.515019 C84.7278614,166.201853 90.2760542,161.788101 90.9650602,155.676406 C91.6540663,149.56396 87.2263554,144.032508 81.0953313,143.345675 C79.3641566,143.15201 77.6066265,143.364441 75.9838855,143.958946 C76.1006024,144.545194 76.1932229,145.537538 75.7203313,146.273163 C75.5215361,146.581675 75.2436747,146.812872 74.8995482,146.956994 C75.0983434,147.641576 75.3295181,148.81107 74.9432229,149.701327 C74.7429217,150.161468 74.3927711,150.502258 73.9311747,150.686915 C73.7737952,150.755974 72.8724398,151.112527 71.3581325,150.943633 C70.9236446,151.643228 70.0283133,152.489948 68.7240964,152.343573 C68.7173193,152.342823 68.7105422,152.342072 68.7045181,152.341321 C68.7082831,152.419388 68.7135542,152.498955 68.7173193,152.561258 C68.7323795,152.775941 68.7474398,152.997379 68.7263554,153.185038 C68.0373494,159.296734 72.4650602,164.828186 78.5960843,165.515019 Z M81.2112952,142.314298 C87.9138554,143.064936 92.7534639,149.111326 92.0004518,155.792005 C91.2474398,162.472683 85.1819277,167.297034 78.4801205,166.546396 C71.7775602,165.795758 66.9379518,159.750119 67.6909639,153.06944 C67.701506,152.974109 67.6894578,152.791704 67.6789157,152.631818 C67.6450301,152.135646 67.6134036,151.666498 67.949247,151.388762 C68.1209337,151.246891 68.3415663,151.202603 68.575,151.262654 C69.9018072,151.607197 70.5260542,150.319102 70.5923193,150.171227 L70.7557229,149.807167 L71.1510542,149.867969 C72.6668675,150.108924 73.4996988,149.742612 73.5072289,149.738108 L73.5381024,149.725348 C73.7512048,149.642027 73.8942771,149.503159 73.9868976,149.288476 C74.3084337,148.549848 73.9108434,147.203954 73.7459337,146.790353 L73.4966867,146.165071 L74.1668675,146.083252 C74.5930723,146.031458 74.7572289,145.847551 74.8430723,145.713187 C75.1932229,145.168974 74.9756024,144.123336 74.8724398,143.799811 L74.7263554,143.345675 L75.1683735,143.162519 C77.0667169,142.377352 79.1570783,142.083852 81.2112952,142.314298 Z" id="Fill-89" fill="#AEE8D2"></path>
                    <path d="M76.5670934,151.795382 C76.6280873,151.257175 77.1145331,150.869845 77.6544428,150.929897 C78.1943524,150.990698 78.5829066,151.476361 78.5226657,152.014569 C78.4616717,152.552776 77.9752259,152.940105 77.4353163,152.879304 C76.8946536,152.819253 76.5060994,152.33359 76.5670934,151.795382" id="Fill-91" fill="#AEE8D2"></path>
                    <path d="M79.9981928,163.599992 C80.0591867,163.061784 80.5456325,162.674455 81.0855422,162.734506 C81.6254518,162.795308 82.014006,163.28097 81.9537651,163.819178 C81.8927711,164.357385 81.4063253,164.744715 80.8656627,164.683913 C80.325753,164.623862 79.9371988,164.138199 79.9981928,163.599992" id="Fill-93" fill="#AEE8D2"></path>
                    <path d="M85.9957831,158.491149 C86.4581325,158.542943 86.8760542,158.21041 86.928012,157.749518 C86.9799699,157.288627 86.6463855,156.872023 86.1840361,156.820229 C85.7216867,156.768435 85.3037651,157.100967 85.2518072,157.561859 C85.1998494,158.022751 85.5334337,158.439355 85.9957831,158.491149 M86.2156627,156.541742 C86.8316265,156.610801 87.2766566,157.167023 87.2073795,157.781045 C87.1381024,158.395067 86.5808735,158.838694 85.9641566,158.769636 C85.3481928,158.700577 84.9031627,158.145105 84.9724398,157.530332 C85.0417169,156.91631 85.5989458,156.472683 86.2156627,156.541742" id="Fill-95" fill="#AEE8D2"></path>
                    <path d="M77.7848645,158.558331 C78.2472139,158.610125 78.6651355,158.277592 78.7170934,157.816701 C78.7690512,157.355809 78.4354669,156.939205 77.9731175,156.887411 C77.5107681,156.835617 77.0928464,157.168149 77.0408886,157.629041 C76.9889307,158.089933 77.3225151,158.506537 77.7848645,158.558331 M78.004744,156.608924 C78.6207078,156.677983 79.065738,157.234205 78.9964608,157.848227 C78.9271837,158.462249 78.3699548,158.905876 77.753238,158.836818 C77.1372741,158.767759 76.692244,158.212287 76.7615211,157.597514 C76.8307982,156.983492 77.3880271,156.539865 78.004744,156.608924" id="Fill-97" fill="#AEE8D2"></path>
                    <path d="M69.9323042,157.537839 C69.9759789,157.153512 70.3231175,156.876526 70.7094127,156.920063 C71.0949548,156.96285 71.3720633,157.309645 71.3291416,157.693971 C71.2854669,158.079049 70.9375753,158.355283 70.5520331,158.312497 C70.166491,158.26896 69.8886295,157.922165 69.9323042,157.537839" id="Fill-99" fill="#AEE8D2"></path>
                    <path d="M26.273494,64.976883 C26.1364458,66.9525624 27.4286145,68.8118929 29.4203313,69.3230774 C31.4112952,69.8350126 33.4436747,68.8291576 34.2817771,67.0336313 L26.273494,64.976883 Z M29.0362952,70.8070889 C25.9707831,70.0196695 24.1183735,66.8917607 24.9090361,63.8351625 L25.1003012,63.0935321 L36.2215361,65.9497099 L36.0302711,66.692091 C35.2396084,69.7486892 32.1025602,71.5945082 29.0362952,70.8070889 Z" id="Fill-101" fill="#AEE8D2"></path>
                    <path d="M28.891491,58.7390806 C28.6783886,59.5640318 27.8350151,60.0602036 27.0074548,59.847773 C26.1806476,59.6353425 25.6829066,58.7946278 25.896009,57.9696766 C26.1091114,57.1447253 26.9524849,56.6485536 27.7792922,56.8609841 C28.6068524,57.0734147 29.1045934,57.9141294 28.891491,58.7390806" id="Fill-103" fill="#AEE8D2"></path>
                    <path d="M38.2670934,61.1472026 C38.053991,61.9721538 37.2106175,62.4683256 36.3830572,62.255895 C35.55625,62.0434645 35.058509,61.2027498 35.2716114,60.3777986 C35.4847139,59.5528473 36.3280873,59.0566756 37.1548946,59.2691061 C37.9824548,59.4815367 38.4801958,60.3222514 38.2670934,61.1472026" id="Fill-105" fill="#AEE8D2"></path>
                    <path d="M43.990738,84.1234083 C43.5600151,84.0130645 43.3002259,83.5746919 43.4116717,83.1445763 L51.0758283,53.4943724 L17.5908886,44.7516907 L13.807003,59.3876319 C13.6963102,59.8177475 13.2565512,60.075967 12.8258283,59.9656232 C12.3943524,59.8545288 12.1353163,59.4169068 12.246009,58.9867912 L16.433509,42.7880215 L53.0374247,52.3451455 L44.9726657,83.5461676 C44.8612199,83.9755326 44.4214608,84.2345027 43.990738,84.1234083" id="Fill-107" fill="#AEE8D2"></path>
                    <path d="M36.2898343,88.6544849 L13.455497,82.7897496 C9.64902108,81.8116682 7.3500753,77.9293681 8.33125,74.134142 L9.26649096,70.5153159 C9.37718373,70.0859509 9.81694277,69.8269808 10.2476657,69.9380752 C10.6791416,70.048419 10.9381777,70.4867916 10.8274849,70.9161566 L9.89224398,74.5349827 C9.13320783,77.4722295 10.9118223,80.4770337 13.8576054,81.2336769 L36.6919428,87.0984122 C39.6384789,87.8550553 42.6520331,86.0812976 43.4110693,83.1448014 C43.5225151,82.7154365 43.9615211,82.4564663 44.392997,82.5675608 C44.8237199,82.6779046 45.083509,83.1162772 44.9720633,83.5456422 C43.9916416,87.3408683 40.0963102,89.6325663 36.2898343,88.6544849" id="Fill-109" fill="#AEE8D2"></path>
                    <path d="M50.864759,84.547744 L44.3180723,82.8663147 C43.8865964,82.7552203 43.6275602,82.3175983 43.738253,81.8874827 C43.8496988,81.4581177 44.2887048,81.1991476 44.7201807,81.310242 L51.2668675,82.9916713 C51.989006,83.1770789 52.7277108,82.7424594 52.9137048,82.0225975 L57.7246988,63.4105265 C57.9106928,62.6906646 57.4746988,61.9542887 56.7525602,61.768881 L50.2058735,60.0874518 C49.7743976,59.9763573 49.5153614,59.5387353 49.6260542,59.1086197 C49.7375,58.6792547 50.177259,58.4202846 50.6079819,58.531379 L57.1546687,60.2128083 C58.738253,60.6196542 59.6938253,62.233526 59.2856928,63.8113672 L54.4746988,82.4234383 C54.0673193,84.0012795 52.4475904,84.9545898 50.864759,84.547744" id="Fill-111" fill="#AEE8D2"></path>
                    <path d="M49.3201054,80.1409731 L45.291491,79.1058432 C44.9451054,79.0172679 44.7357681,78.664468 44.8253765,78.3191745 C44.9149849,77.973881 45.2681476,77.7659542 45.6145331,77.8552801 L49.6439006,78.8896594 C50.2237199,79.0390364 50.8178464,78.689239 50.9676958,78.1104971 L53.9089608,66.7315745 C54.0588102,66.1528326 53.7079066,65.5605791 53.1273343,65.4112022 L49.0987199,64.3768229 C48.7523343,64.287497 48.54375,63.9354477 48.6326054,63.5894036 C48.7222139,63.2441101 49.0753765,63.0361833 49.4225151,63.1255092 L53.4511295,64.1598885 C54.7237199,64.4871667 55.4925452,65.7850199 55.1642319,67.0535983 L52.2229669,78.4332715 C51.8954066,79.7018498 50.5926958,80.4682513 49.3201054,80.1409731" id="Fill-113" fill="#AEE8D2"></path>
                    <path d="M16.6990964,60.3678901 C16.2683735,60.2567957 16.0085843,59.8191737 16.1200301,59.3890581 L19.9611446,44.5271749 C20.0725904,44.0978099 20.5115964,43.8388398 20.9430723,43.9499342 C21.3737952,44.060278 21.6335843,44.4986507 21.5221386,44.9280156 L17.6810241,59.7906495 C17.5695783,60.2200144 17.1298193,60.4789846 16.6990964,60.3678901" id="Fill-115" fill="#AEE8D2"></path>
                    <path d="M9.74216867,69.8081397 L18.4921687,72.0555501 L21.1051205,61.9482085 L12.3551205,59.7007981 L9.74216867,69.8081397 Z M19.6510542,74.0124636 L7.77906627,70.9633717 L11.1962349,57.7438846 L23.0682229,60.7929765 L19.6510542,74.0124636 Z" id="Fill-117" fill="#AEE8D2"></path>
                    <path d="M108.891717,66.4735052 L136.931627,81.2678309 L136.966265,77.1851105 L112.021235,64.0234225 L108.891717,66.4735052 Z M138.348795,83.6368447 L106.264458,66.7084549 L111.868373,62.321726 L138.410542,76.3256299 L138.348795,83.6368447 Z" id="Fill-119" fill="#AEE8D2"></path>
                    <path d="M95.2015813,106.090831 L111.506551,114.693894 L134.430497,81.5697376 L110.108961,68.7368291 L95.2015813,106.090831 Z M111.96363,116.555477 L93.3890813,106.755897 L109.365738,66.7236178 L136.531401,81.0570518 L111.96363,116.555477 Z" id="Fill-121" fill="#AEE8D2"></path>
                    <path d="M129.498569,90.1833095 L105.743298,77.6491549 C105.392395,77.464498 105.258358,77.0306291 105.444352,76.6808318 C105.630346,76.3317851 106.064834,76.1981715 106.415738,76.3828285 L130.171009,88.916983 C130.521913,89.10164 130.655949,89.5355088 130.469955,89.8853061 C130.283961,90.2351035 129.849473,90.3679664 129.498569,90.1833095" id="Fill-123" fill="#AEE8D2"></path>
                    <path d="M120.409036,103.443256 L99.8548193,92.5980371 C99.5039157,92.4133801 99.3698795,91.9795113 99.5558735,91.6304646 C99.7418675,91.2806673 100.176355,91.1470537 100.527259,91.3317106 L121.081476,102.17693 C121.43238,102.361586 121.566416,102.795455 121.380422,103.145253 C121.194428,103.49505 120.75994,103.627913 120.409036,103.443256" id="Fill-125" fill="#AEE8D2"></path>
                    <path d="M109.971913,90.4034716 C109.455346,92.0488703 110.171461,93.8841803 111.754292,94.7188899 C113.33637,95.5543501 115.261822,95.1129749 116.33637,93.7610757 L109.971913,90.4034716 Z M111.127786,95.8981423 C108.691039,94.6122993 107.758057,91.5902304 109.047967,89.1611656 L109.36122,88.5719147 L118.199322,93.2348784 L117.886069,93.8248799 C116.59616,96.2531941 113.564533,97.1839853 111.127786,95.8981423 Z" id="Fill-127" fill="#AEE8D2"></path>
                    <path d="M113.455572,85.6493804 C113.107681,86.3046875 112.292922,86.55465 111.635542,86.2078552 C110.978163,85.8610604 110.726657,85.04887 111.075301,84.3935629 C111.423193,83.7382559 112.237952,83.4882934 112.895331,83.8350882 C113.552711,84.181883 113.803464,84.9940734 113.455572,85.6493804" id="Fill-129" fill="#AEE8D2"></path>
                    <path d="M120.906024,89.580472 C120.558133,90.2357791 119.743373,90.4857415 119.085994,90.1389467 C118.428614,89.792152 118.177108,88.9799616 118.525753,88.3246545 C118.873645,87.6693475 119.688404,87.419385 120.345783,87.7661798 C121.003163,88.1129746 121.253916,88.925165 120.906024,89.580472" id="Fill-131" fill="#AEE8D2"></path>
                    <path d="M55.7310994,98.0182445 C54.8079066,98.2937286 53.9916416,98.8394425 53.3756777,99.6035921 C51.7160392,101.661091 52.0451054,104.680908 54.1083584,106.335314 C55.1083584,107.136996 56.3613705,107.501806 57.6377259,107.363688 C58.9133283,107.227072 60.0586596,106.60029 60.8613705,105.604193 C62.521009,103.545943 62.1911898,100.526126 60.1279367,98.87172 C59.1279367,98.0707891 57.8749247,97.705979 56.6000753,97.8433458 C56.3026355,97.8756232 56.0112199,97.9349236 55.7310994,98.0182445 M58.7883283,108.121833 C58.4502259,108.223169 58.1008283,108.293729 57.7423946,108.332012 C56.207756,108.498653 54.6994729,108.058779 53.4961596,107.094209 C51.0127259,105.103517 50.6166416,101.469678 52.6136295,98.9933233 C54.6113705,96.517719 58.2567018,96.1221327 60.7401355,98.1128249 C63.2235693,100.104268 63.6204066,103.738107 61.6234187,106.214462 C60.8817018,107.133993 59.8990211,107.790802 58.7883283,108.121833" id="Fill-133" fill="#AEE8D2"></path>
                    <path d="M64.7143825,105.21829 C63.7911898,105.493774 62.9749247,106.039488 62.3589608,106.803637 C60.6993223,108.861136 61.0283886,111.880953 63.0916416,113.53536 C64.0916416,114.33629 65.3446536,114.701851 66.620256,114.563734 C67.8958584,114.424866 69.0411898,113.800335 69.8446536,112.803488 C71.5042922,110.745989 71.1752259,107.726172 69.1119729,106.071765 C68.1119729,105.270834 66.8589608,104.905274 65.5833584,105.043391 C65.2859187,105.075669 64.994503,105.134969 64.7143825,105.21829 M67.7716114,115.321878 C67.433509,115.423214 67.0841114,115.493774 66.7256777,115.532057 C65.1910392,115.698699 63.682756,115.258825 62.4794428,114.294255 C59.996009,112.303563 59.5999247,108.669724 61.5969127,106.193369 C62.5645331,104.993098 63.9432982,104.240959 65.4779367,104.075068 C67.0125753,103.909177 68.5208584,104.3483 69.7241717,105.31287 C72.2076054,107.303562 72.6036898,110.938152 70.6067018,113.414507 C69.8649849,114.334039 68.8823042,114.990847 67.7716114,115.321878" id="Fill-135" fill="#AEE8D2"></path>
                    <path d="M73.1908886,112.011414 C72.2917922,112.279392 71.4627259,112.812345 70.8317018,113.59451 C69.1720633,115.652009 69.5018825,118.671826 71.5651355,120.326983 C73.6291416,121.980638 76.659262,121.65336 78.3181476,119.595111 C79.1223645,118.598263 79.4883283,117.349202 79.3497741,116.077621 C79.2112199,114.80604 78.5847139,113.664319 77.5847139,112.862638 C76.3060994,111.838017 74.65625,111.573792 73.1908886,112.011414 M76.2451054,122.112751 C75.907003,122.214087 75.5576054,122.284647 75.1991717,122.32368 C73.6645331,122.489571 72.15625,122.050448 70.9536898,121.085127 C68.469503,119.094435 68.0726657,115.459846 70.0696536,112.984241 C72.0689006,110.508637 75.7142319,110.113801 78.1969127,112.104493 C79.4002259,113.068313 80.154744,114.44198 80.3219127,115.972531 C80.4890813,117.502332 80.0478163,119.00586 79.0809488,120.205379 C78.3392319,121.124911 77.3557982,121.781719 76.2451054,122.112751" id="Fill-137" fill="#AEE8D2"></path>
                    <polygon id="Fill-139" fill="#AEE8D2" points="87.6678464 127.712586 78.39375 120.279768 79.0051958 119.520873 88.2800452 126.953691"></polygon>
                    <polygon id="Fill-141" fill="#AEE8D2" points="52.6884789 99.6776801 48.0514307 95.961271 48.6628765 95.2023759 53.3006777 98.918785"></polygon>
                    <path d="M167.058961,79.7670052 C166.337575,79.1312147 165.441491,78.7273714 164.464834,78.6087706 C161.836069,78.2889988 159.43622,80.1610902 159.115437,82.7815677 C158.960316,84.0508967 159.310467,85.3052129 160.10113,86.3125692 C160.891039,87.3206761 162.029593,87.9602197 163.302184,88.1141005 C165.930949,88.4338724 168.330798,86.5610304 168.651581,83.9405529 C168.806702,82.6712239 168.456551,81.4169077 167.665889,80.410302 C167.482154,80.1753523 167.278087,79.9599192 167.058961,79.7670052 M160.062726,87.6869875 C159.798419,87.4542897 159.55369,87.1953195 159.331551,86.912329 C158.379744,85.7007991 157.95881,84.1920166 158.145557,82.6637175 C158.531852,79.510287 161.419654,77.2576221 164.583057,77.6411982 C167.746461,78.0270261 170.007003,80.9049725 169.620708,84.058403 C169.235166,87.2118336 166.348117,89.4659997 163.183961,89.081673 C162.009262,88.9390518 160.930949,88.4526383 160.062726,87.6869875" id="Fill-153" fill="#AEE8D2"></path>
                    <path d="M165.66378,91.1730258 C164.942395,90.5372353 164.04631,90.133392 163.069654,90.0147912 C160.440889,89.6950194 158.041039,91.5671107 157.720256,94.1875883 C157.565136,95.4569172 157.915286,96.7112335 158.705949,97.7185898 C159.497364,98.7251954 160.63366,99.3654897 161.907003,99.5201211 C164.535768,99.8398929 166.935617,97.9678016 167.257154,95.3473241 C167.412274,94.0779951 167.062123,92.8236789 166.270708,91.8163226 C166.086973,91.5813729 165.882907,91.3659397 165.66378,91.1730258 M158.667545,99.0930081 C158.403238,98.8603103 158.158509,98.6013401 157.93637,98.3183496 C156.985316,97.1068197 156.56363,95.5980372 156.750377,94.0697381 C157.136672,90.9163075 160.024473,88.6636427 163.187877,89.0472187 C164.721009,89.233377 166.089232,90.0050329 167.041039,91.2165628 C167.992093,92.4280926 168.41378,93.9368751 168.22628,95.4651743 C167.840738,98.6186048 164.952937,100.87127 161.789533,100.487694 C160.614081,100.344322 159.535768,99.8586589 158.667545,99.0930081" id="Fill-155" fill="#AEE8D2"></path>
                    <path d="M164.347967,101.935224 C163.645407,101.315948 162.75384,100.894089 161.75384,100.773236 C159.125075,100.453465 156.725979,102.325556 156.404443,104.946784 C156.084413,107.566511 157.961672,109.959545 160.59119,110.278566 C161.864533,110.433198 163.122816,110.084902 164.133358,109.295981 C165.143148,108.507811 165.785467,107.375098 165.940587,106.105019 C166.139383,104.481388 165.494051,102.945583 164.347967,101.935224 M157.351732,109.852204 C157.087425,109.618755 156.842696,109.360536 156.620557,109.077545 C155.669503,107.866015 155.247816,106.356482 155.435316,104.828934 C155.820858,101.674753 158.70866,99.4213372 161.872063,99.8056638 C165.03622,100.191492 167.296762,103.070939 166.910467,106.222869 C166.72372,107.751168 165.95113,109.114327 164.735768,110.063133 C163.519654,111.01269 162.006099,111.432297 160.47372,111.246139 C159.298268,111.103517 158.219955,110.617104 157.351732,109.852204" id="Fill-157" fill="#AEE8D2"></path>
                    <polygon id="Fill-159" fill="#AEE8D2" points="158.60753 122.478987 160.048042 110.703728 161.017169 110.821578 159.576657 122.596837"></polygon>
                    <polygon id="Fill-161" fill="#AEE8D2" points="164.039383 78.0662845 164.759262 72.1782795 165.729142 72.2961296 165.008509 78.1841347"></polygon>
                    <path d="M154.844352,51.9867158 C154.209563,51.5986359 153.376732,51.797555 152.987425,52.4295923 C152.598117,53.0623802 152.796913,53.8925859 153.431702,54.2806658 C154.066491,54.6694963 154.899322,54.4705772 155.28863,53.8377893 C155.677937,53.2050014 155.479142,52.3747957 154.844352,51.9867158 M152.647063,55.5552492 C151.307455,54.7363031 150.886521,52.9828125 151.70881,51.6474274 C152.531099,50.3120423 154.289383,49.8924356 155.628991,50.7121324 C156.968599,51.5318291 157.389533,53.284569 156.567244,54.6199542 C155.744955,55.9553393 153.986672,56.374946 152.647063,55.5552492" id="Fill-163" fill="#AEE8D2"></path>
                    <path d="M148.558735,62.7865211 L152.079819,64.9408523 C152.160392,64.6578618 152.279367,64.3868815 152.433735,64.1346671 C153.373494,62.6093705 155.381777,62.1304634 156.911898,63.0665091 C157.009789,63.1265601 157.104669,63.1918656 157.195783,63.261675 L162.826807,54.1166513 C161.95256,53.0627555 161.828313,51.5457159 162.5625,50.352952 C163.296687,49.1609388 164.71009,48.5844487 166.048193,48.8839533 L166.182982,48.6655177 L160.387801,45.1195034 C160.307229,45.3071629 160.213102,45.4880667 160.105422,45.6622147 C158.88253,47.6491537 156.265813,48.2736846 154.27259,47.0538977 C152.279367,45.8348615 151.653614,43.2263942 152.876506,41.2394552 C152.983434,41.0653072 153.103163,40.8994162 153.23494,40.7432834 L148.036145,37.5628299 L142.652108,46.3077635 C143.031627,46.4030945 143.396084,46.555474 143.731175,46.7603982 C145.565512,47.8826021 146.142319,50.2838933 145.016566,52.1124477 C143.890813,53.941002 141.481928,54.5159908 139.64759,53.3937869 C139.3125,53.188112 139.011295,52.9336457 138.753765,52.6393956 L136.898343,55.6524568 L143.384789,59.6210803 C143.457078,59.2292473 143.600904,58.8509257 143.811747,58.5086347 C144.750753,56.9833381 146.759036,56.5036804 148.289157,57.4397261 C149.819277,58.3757718 150.299699,60.3784741 149.360693,61.9037707 C149.149849,62.2460617 148.877259,62.5448156 148.558735,62.7865211 Z M153.009789,66.7506407 L146.284639,62.6356428 L147.326807,62.2648276 C147.802711,62.0944328 148.193524,61.7784141 148.457078,61.3505504 C149.089608,60.3221763 148.765813,58.9717784 147.734187,58.3412424 C146.703313,57.7099558 145.348645,58.0334808 144.715361,59.061855 C144.451807,59.4897187 144.346386,59.9798853 144.409639,60.4798103 L144.548946,61.5742406 L135.439006,56.0007529 L138.754518,50.616426 L139.191265,51.4241126 C139.429217,51.8639865 139.778614,52.2333004 140.20256,52.4922706 C141.538404,53.3097154 143.292169,52.89161 144.112199,51.5592274 C144.932229,50.2275955 144.512048,48.4793594 143.176205,47.6619146 C142.753012,47.4029444 142.264307,47.2588219 141.763554,47.2468117 L140.843373,47.2242926 L147.686747,36.1080933 L154.978916,40.569886 L154.425452,41.0420374 C154.170181,41.2597224 153.953313,41.5119368 153.780873,41.7926755 C152.862952,43.282692 153.332831,45.2388549 154.82756,46.153132 C156.322289,47.0674092 158.284639,46.599011 159.201807,45.1097451 C159.375,44.8275052 159.503012,44.5204942 159.581325,44.1969692 L159.752259,43.4906188 L167.642319,48.3172216 L166.511295,50.1532823 L166.10241,50.0009028 C165.122741,49.6360927 164.014307,50.0166662 163.466114,50.9061723 C162.918675,51.7956784 163.079819,52.953913 163.850151,53.6595128 L164.171687,53.9537629 L157.368976,65.0031553 L156.896084,64.4356729 C156.740211,64.248764 156.558735,64.0911301 156.356928,63.9672748 C155.325301,63.3367388 153.971386,63.6595132 153.338102,64.6878873 C153.131024,65.0241732 153.019578,65.4137543 153.016566,65.8138444 L153.009789,66.7506407 Z" id="Fill-165" fill="#AEE8D2"></path>
                    <path d="M148.599398,43.8322342 C148.150602,43.5575006 147.561747,43.6986206 147.286145,44.1460009 C147.011295,44.5926305 147.152108,45.1803801 147.600904,45.454363 C148.048946,45.7290966 148.638554,45.5887273 148.914157,45.141347 C149.189006,44.6939667 149.048193,44.1069677 148.599398,43.8322342 M147.045934,46.3558794 C146.098645,45.7763868 145.801205,44.5370833 146.38253,43.5927806 C146.963855,42.6484779 148.207078,42.3512253 149.154367,42.9307178 C150.101657,43.5109611 150.399096,44.7502645 149.817771,45.6945672 C149.236446,46.6388699 147.993223,46.935372 147.045934,46.3558794" id="Fill-167" fill="#AEE8D2"></path>
                    <path d="M15.8926958,171.679334 C21.1472139,175.104496 28.2880271,174.103895 32.3866717,169.280295 C36.5448042,164.385384 36.3060994,157.141727 31.9220633,152.537313 L15.8926958,171.679334 Z M33.2036898,169.970131 C28.6216114,175.363466 20.533509,176.352056 14.7910392,172.219794 L14.3256777,171.885009 L31.845256,150.963225 L32.2594127,151.360312 C37.4363705,156.325033 37.8512801,164.499481 33.2036898,169.970131 Z" id="Fill-169" fill="#AEE8D2"></path>
                    <path d="M17.3374247,169.766333 C21.5844127,172.534686 27.355497,171.726249 30.667997,167.827435 C34.0286898,163.871572 33.8351657,158.017346 30.292244,154.295683 L17.3374247,169.766333 Z M31.3283886,168.385159 C27.6250753,172.744114 21.0881777,173.542793 16.4473645,170.203205 L16.0708584,169.932224 L30.229744,153.024102 L30.5648343,153.344624 C34.7485693,157.357535 35.0844127,163.963901 31.3283886,168.385159 Z" id="Fill-171" fill="#AEE8D2"></path>
                    <polygon id="Fill-173" fill="#AEE8D2" points="31.2776355 167.776842 30.7181476 168.435152 23.1420934 162.039715 23.7015813 161.380655"></polygon>
                    <polygon id="Fill-175" fill="#AEE8D2" points="23.7074548 171.817302 22.842997 171.860839 22.3625753 162.470356 23.2270331 162.426069"></polygon>
                    <polygon id="Fill-177" fill="#AEE8D2" points="33.4660392 160.32796 24.146762 161.341322 24.0526355 160.483342 33.3719127 159.469981"></polygon>
                </g>
            </g>
        </g>
    </g>
</svg>